Coordinates
version=1
nRows=19
nColumns=63
inDegrees=yes

Units are S.I. units (second, meters, Newtons, ...)
If the header above contains a line with 'inDegrees', this indicates whether rotational values are in degrees (yes) or radians (no).

endheader
time	pelvis_tilt	pelvis_list	pelvis_rotation	pelvis_tx	pelvis_ty	pelvis_tz	hip_flexion_r	hip_adduction_r	hip_rotation_r	knee_angle_r	knee_angle_r_beta	ankle_angle_r	subtalar_angle_r	mtp_angle_r	hip_flexion_l	hip_adduction_l	hip_rotation_l	knee_angle_l	knee_angle_l_beta	ankle_angle_l	subtalar_angle_l	mtp_angle_l	L5_S1_Flex_Ext	L5_S1_Lat_Bending	L5_S1_axial_rotation	L4_L5_Flex_Ext	L4_L5_Lat_Bending	L4_L5_axial_rotation	L3_L4_Flex_Ext	L3_L4_Lat_Bending	L3_L4_axial_rotation	L2_L3_Flex_Ext	L2_L3_Lat_Bending	L2_L3_axial_rotation	L1_L2_Flex_Ext	L1_L2_Lat_Bending	L1_L2_axial_rotation	L1_T12_Flex_Ext	L1_T12_Lat_Bending	L1_T12_axial_rotation	Abs_r3	Abs_r2	Abs_r1	Abs_t1	Abs_t2	neck_flexion	neck_bending	neck_rotation	arm_flex_r	arm_add_r	arm_rot_r	elbow_flex_r	pro_sup_r	wrist_flex_r	wrist_dev_r	arm_flex_l	arm_add_l	arm_rot_l	elbow_flex_l	pro_sup_l	wrist_flex_l	wrist_dev_l
5.833333	0.438853	-4.995501	93.657075	0.012838	0.838184	0.701489	11.371373	-3.245613	0.391538	22.071387	0.385218	38.321069	-0.871131	0.000000	3.941438	2.736489	4.861652	4.160480	0.072614	36.278501	0.714776	0.000000	-0.026666	0.169440	0.067050	-0.049522	0.225356	0.071240	-0.043810	0.411977	0.071240	-0.030477	0.411977	0.058669	-0.024762	0.345523	0.054478	-0.015237	0.262463	0.050287	-0.190473	1.916743	0.372911	0.000000	0.000000	26.519506	-2.441219	1.051485	-3.648936	-16.981362	21.530415	28.407655	75.018046	-11.509951	-6.167733	5.799429	-13.060263	61.970054	21.998505	74.596815	-15.444045	2.233086
5.851852	0.461489	-5.055420	93.609612	0.013004	0.838155	0.701441	11.319866	-3.264245	0.134503	21.888262	0.382022	38.273777	-0.448159	0.000000	3.997830	2.721752	5.208916	4.170705	0.072793	36.234864	0.249194	0.000000	-0.016428	0.162759	0.032141	-0.030508	0.216469	0.034150	-0.026989	0.395732	0.034150	-0.018775	0.395732	0.028123	-0.015255	0.331898	0.026114	-0.009387	0.252113	0.024106	-0.117340	1.841160	0.178757	0.000000	0.000000	26.879334	-1.651723	0.223571	-3.275833	-16.899680	22.248080	28.009716	74.221178	-11.556847	-6.292430	5.882611	-13.108934	61.971210	22.017022	74.925182	-14.765513	2.700521
5.870370	0.520508	-5.101189	93.616242	0.013126	0.838120	0.701413	11.216460	-3.245093	-0.128339	21.633519	0.377576	38.199821	-0.046637	0.000000	4.069763	2.673962	5.576294	4.221141	0.073673	36.194034	-0.227416	0.000000	-0.008980	0.160227	-0.018680	-0.016677	0.213101	-0.019848	-0.014753	0.389575	-0.019848	-0.010263	0.389575	-0.016345	-0.008339	0.326734	-0.015178	-0.005131	0.248191	-0.014010	-0.064143	1.812516	-0.103895	0.000000	0.000000	27.192103	-0.866719	-0.608851	-2.802942	-16.809125	23.256140	27.496316	73.201858	-11.661223	-6.378705	5.903178	-13.209419	61.778064	22.141181	75.234147	-14.199846	3.166165
5.888889	0.574899	-5.155087	93.601237	0.013287	0.838049	0.701348	11.120678	-3.240421	-0.413073	21.367358	0.372931	38.160076	0.474687	0.000000	4.148135	2.628345	5.819152	4.259176	0.074337	36.153991	-0.603694	0.000000	-0.000738	0.157088	-0.077363	-0.001370	0.208927	-0.082198	-0.001212	0.381944	-0.082198	-0.000843	0.381944	-0.067692	-0.000685	0.320334	-0.062857	-0.000421	0.243330	-0.058022	-0.005268	1.777013	-0.430267	0.000000	0.000000	27.455443	-0.175942	-1.455492	-2.203498	-16.701146	24.722144	26.840921	71.948707	-11.729211	-6.378112	5.775811	-13.349199	61.256582	22.356598	75.341260	-13.735203	3.430835
5.907407	0.625438	-5.219240	93.634814	0.013454	0.837954	0.701277	11.028458	-3.240319	-0.696992	21.086571	0.368030	38.128829	0.963903	0.000000	4.243205	2.583393	5.968156	4.287160	0.074825	36.124690	-0.820367	0.000000	0.008258	0.152428	-0.152057	0.015335	0.202729	-0.161561	0.013566	0.370613	-0.161561	0.009438	0.370613	-0.133050	0.007668	0.310831	-0.123546	0.004718	0.236111	-0.114043	0.058983	1.724296	-0.845696	0.000000	0.000000	27.663265	0.409487	-2.315510	-1.492185	-16.566193	26.636158	26.058723	70.595552	-11.819804	-6.270321	5.538727	-13.555624	60.567299	22.675231	75.243276	-13.339976	3.586201
5.925926	0.662306	-5.289099	93.655010	0.013701	0.837827	0.701160	10.944211	-3.234618	-0.882409	20.797225	0.362980	38.111888	1.380347	0.000000	4.341262	2.547263	6.054704	4.302729	0.075097	36.099050	-0.993346	0.000000	0.017860	0.144724	-0.226616	0.033168	0.192483	-0.240780	0.029343	0.351882	-0.240780	0.020413	0.351882	-0.198289	0.016585	0.295122	-0.184126	0.010205	0.224178	-0.169962	0.127574	1.637149	-1.260372	0.000000	0.000000	27.811317	0.847084	-3.255742	-0.770824	-16.353042	28.510996	25.235275	69.488309	-11.830873	-5.976336	5.100434	-13.807880	59.156779	23.160374	75.565050	-12.939077	3.785449
5.944444	0.687897	-5.350615	93.688518	0.013974	0.837707	0.701005	10.852783	-3.244682	-1.102867	20.509215	0.357953	38.130840	1.859243	0.000000	4.421124	2.515305	6.034228	4.293501	0.074936	36.081788	-1.012008	0.000000	0.027068	0.134128	-0.303897	0.050269	0.178391	-0.322891	0.044471	0.326120	-0.322891	0.030937	0.326120	-0.265910	0.025136	0.273515	-0.246917	0.015467	0.207765	-0.227923	0.193347	1.517287	-1.690186	0.000000	0.000000	27.882461	1.118922	-4.308293	-0.034591	-16.108955	30.540623	24.377060	68.273890	-11.801213	-5.612541	4.524056	-14.083495	57.390765	23.724920	75.830603	-12.586522	3.889126
5.962963	0.693966	-5.391200	93.730327	0.014292	0.837622	0.700856	10.748056	-3.263675	-1.291129	20.234367	0.353156	38.169963	2.297135	0.000000	4.488804	2.490489	5.787666	4.303653	0.075113	36.110920	-0.729667	0.000000	0.034922	0.119889	-0.388534	0.064853	0.159452	-0.412817	0.057373	0.291497	-0.412817	0.039912	0.291497	-0.339967	0.032428	0.244477	-0.315684	0.019954	0.185708	-0.291400	0.249442	1.356205	-2.160907	0.000000	0.000000	27.873445	1.288715	-5.375175	0.806935	-15.913054	33.339587	23.477012	66.345042	-11.815648	-5.339172	3.845807	-14.407226	55.473560	24.348444	75.830173	-12.285115	3.880640
5.981481	0.685742	-5.414468	93.744146	0.014612	0.837564	0.700665	10.636883	-3.296176	-1.478650	19.979567	0.348709	38.228844	2.789215	0.000000	4.518487	2.476020	5.473396	4.288624	0.074851	36.116877	-0.390413	0.000000	0.042677	0.104172	-0.467812	0.079256	0.138549	-0.497050	0.070114	0.253285	-0.497050	0.048776	0.253285	-0.409336	0.039630	0.212428	-0.380097	0.024386	0.161363	-0.350859	0.304838	1.178418	-2.601831	0.000000	0.000000	27.808704	1.299339	-6.506729	1.528452	-15.702127	35.674090	22.715813	64.861774	-11.744570	-5.001389	3.046560	-14.706509	53.197348	25.013775	75.951141	-12.049757	3.784080
6.000000	0.667737	-5.408435	93.749425	0.014877	0.837548	0.700448	10.500614	-3.338751	-1.675715	19.741112	0.344547	38.298920	3.296963	0.000000	4.512600	2.469688	5.116383	4.280006	0.074700	36.117166	0.005785	0.000000	0.048473	0.089509	-0.543182	0.090019	0.119047	-0.577131	0.079636	0.217633	-0.577131	0.055400	0.217633	-0.475284	0.045012	0.182527	-0.441335	0.027698	0.138650	-0.407387	0.346238	1.012547	-3.021016	0.000000	0.000000	27.711883	1.203507	-7.555724	2.095388	-15.521244	37.533111	22.171716	63.737620	-11.625595	-4.642935	2.178349	-14.992460	50.711813	25.750165	76.115390	-11.677553	3.758342
6.018519	0.643266	-5.375828	93.727383	0.015079	0.837590	0.700173	10.340753	-3.395508	-1.911036	19.518940	0.340670	38.373796	3.877661	0.000000	4.444777	2.481807	5.063630	4.224725	0.073735	36.009818	0.000673	0.000000	0.052931	0.077101	-0.614100	0.098298	0.102545	-0.652481	0.086960	0.187465	-0.652481	0.060495	0.187465	-0.537337	0.049152	0.157225	-0.498956	0.030245	0.119430	-0.460575	0.378079	0.872187	-3.415439	0.000000	0.000000	27.606544	0.975833	-8.540699	2.517986	-15.395584	39.032344	21.816052	62.898919	-11.448158	-4.416424	1.234766	-15.221779	48.019617	26.505528	76.483223	-11.299679	3.661548
6.037037	0.625433	-5.322441	93.694130	0.015170	0.837693	0.699851	10.156464	-3.455119	-2.178133	19.303692	0.336913	38.438144	4.484467	0.000000	4.341447	2.489230	4.988671	4.158320	0.072576	35.905386	0.040623	0.000000	0.056901	0.069725	-0.681957	0.105670	0.092734	-0.724579	0.093482	0.169529	-0.724579	0.065032	0.169529	-0.596712	0.052838	0.142183	-0.554090	0.032513	0.108004	-0.511468	0.406436	0.788742	-3.792839	0.000000	0.000000	27.509075	0.617629	-9.424690	2.770816	-15.344145	40.103528	21.664235	62.530419	-11.216145	-4.355605	0.301379	-15.413301	45.548785	27.242176	76.840240	-11.071288	3.401354
6.055556	0.595249	-5.262918	93.625765	0.015186	0.837845	0.699465	9.967610	-3.535011	-2.460915	19.102515	0.333402	38.487509	5.123463	0.000000	4.220090	2.514508	4.946964	4.088723	0.071362	35.794674	0.013309	0.000000	0.062017	0.064906	-0.747205	0.115172	0.086326	-0.793905	0.101888	0.157814	-0.793905	0.070879	0.157814	-0.653804	0.057589	0.132357	-0.607104	0.035436	0.100540	-0.560404	0.442980	0.734235	-4.155730	0.000000	0.000000	27.437791	0.156632	-10.190635	2.867101	-15.342431	40.720992	21.696591	62.720509	-10.906175	-4.429000	-0.682966	-15.563075	43.054204	28.005996	77.323278	-10.980641	2.949459
6.074074	0.557893	-5.193030	93.524924	0.015160	0.838056	0.698976	9.770258	-3.617846	-2.704042	18.921193	0.330237	38.514936	5.701681	0.000000	4.051661	2.547475	4.954918	3.967493	0.069246	35.666974	-0.084282	0.000000	0.068374	0.062269	-0.802776	0.126978	0.082818	-0.852950	0.112332	0.151402	-0.852950	0.078145	0.151402	-0.702429	0.063492	0.126980	-0.652256	0.039069	0.096455	-0.602082	0.488391	0.704404	-4.464801	0.000000	0.000000	27.383616	-0.418998	-10.907760	2.791486	-15.387716	40.876831	21.901815	63.495863	-10.493413	-4.629596	-1.597905	-15.705733	40.977349	28.725383	77.936907	-11.243083	2.263794
6.092593	0.496267	-5.120387	93.346705	0.015178	0.838308	0.698395	9.588017	-3.710939	-2.838843	18.775125	0.327688	38.526464	6.182923	0.000000	3.849853	2.603730	4.998047	3.812688	0.066544	35.520239	-0.301475	0.000000	0.076555	0.058870	-0.833252	0.142169	0.078297	-0.885330	0.125771	0.143137	-0.885330	0.087494	0.143137	-0.729096	0.071089	0.120048	-0.677017	0.043743	0.091190	-0.624939	0.546821	0.665950	-4.634298	0.000000	0.000000	27.347893	-1.108106	-11.633010	2.507224	-15.444818	40.381230	22.322788	64.739590	-9.866116	-4.813428	-2.362455	-15.848063	39.540479	29.332935	78.701641	-11.961559	1.334326
6.111111	0.424901	-5.046342	93.152281	0.015221	0.838611	0.697758	9.408402	-3.803342	-2.916950	18.643753	0.325395	38.508570	6.553864	0.000000	3.625228	2.665970	5.068432	3.634025	0.063426	35.350426	-0.562312	0.000000	0.086868	0.054781	-0.854892	0.161323	0.072858	-0.908323	0.142716	0.133194	-0.908323	0.099282	0.133194	-0.748030	0.080666	0.111709	-0.694600	0.049637	0.084855	-0.641169	0.620491	0.619690	-4.754652	0.000000	0.000000	27.308076	-1.872108	-12.385014	2.090607	-15.497905	39.336319	22.885367	66.440133	-9.099930	-5.067911	-2.956686	-16.011442	38.822932	29.806684	79.473425	-13.074465	0.175910
6.129630	0.338403	-4.959519	92.872519	0.015368	0.838928	0.697086	9.247490	-3.889378	-2.863343	18.562205	0.323972	38.474278	6.804673	0.000000	3.369113	2.739627	5.130672	3.450208	0.060217	35.169574	-0.909936	0.000000	0.096764	0.049165	-0.853544	0.179701	0.065389	-0.906891	0.158974	0.119539	-0.906891	0.110592	0.119539	-0.746851	0.089855	0.100257	-0.693505	0.055291	0.076156	-0.640158	0.691178	0.556162	-4.747157	0.000000	0.000000	27.268268	-2.649398	-13.128136	1.525384	-15.554340	37.655679	23.684578	68.438981	-8.147037	-5.260300	-3.377144	-16.188731	38.773547	30.161970	80.214201	-14.535350	-1.155819
6.148148	0.232614	-4.862482	92.558240	0.015617	0.839258	0.696453	9.104230	-3.986040	-2.772596	18.518319	0.323206	38.437408	7.018660	0.000000	3.090688	2.829482	5.283281	3.259948	0.056897	34.941207	-1.429896	0.000000	0.105682	0.039008	-0.852781	0.196261	0.051881	-0.906080	0.173624	0.094844	-0.906080	0.120784	0.094844	-0.746183	0.098136	0.079545	-0.692885	0.060387	0.060423	-0.639586	0.754874	0.441267	-4.742912	0.000000	0.000000	27.197554	-3.366776	-13.892704	0.977344	-15.625719	35.800319	24.593825	70.400697	-7.156720	-5.508654	-3.707480	-16.407537	38.988213	30.436505	81.164622	-16.311475	-2.567072
6.166667	0.134363	-4.758909	92.169224	0.015987	0.839568	0.695888	8.992019	-4.043556	-2.506887	18.519287	0.323223	38.375619	7.035884	0.000000	2.801536	2.911822	5.443964	3.085044	0.053844	34.681568	-2.092079	0.000000	0.112937	0.029543	-0.841472	0.209735	0.039292	-0.894064	0.185544	0.071831	-0.894064	0.129076	0.071831	-0.736288	0.104873	0.060244	-0.683696	0.064532	0.045762	-0.631104	0.806697	0.334195	-4.680014	0.000000	0.000000	27.108747	-3.990104	-14.544965	0.389898	-15.694108	33.428193	25.722950	72.557408	-6.032569	-5.617642	-3.909657	-16.639899	39.621951	30.622098	82.087550	-18.272448	-4.039225
